<svg xmlns="http://www.w3.org/2000/svg" xml:space="preserve" version="1.0" viewBox="0 0 500 369.109">
    <path fill="#FFF" d="M54.1 14.666h391.8v340.389H54.1z" />
    <path fill="#F14728"
          d="M441.775 14.666H340.441L180.888 127.332h148.665l115.779 115.333-111.776 112.442h108.22c25.555 0 44.221-25.332 44.221-43.331V58.221c-.001-18.223-18.667-43.555-44.222-43.555z" />
    <path fill="#1F4FA3"
          d="M58.666 355.107h101.111l159.554-112.219H170.887L54.666 127.332 167.11 14.666H58.666c-25.778 0-44 25.332-44 43.776v253.555c0 17.778 18.222 43.11 44 43.11z" />
    <path fill="#F14728"
          d="M206.443 137.998H192.22l87.111 87.107c4.001 3.338 7.11 7.336 13.999 6.893h14.89l-87.555-86.889c-4-4.445-6.889-7.111-14.222-7.111z" />
</svg>