<svg xmlns="http://www.w3.org/2000/svg" width="500" height="369" viewBox="0 0 500 369.1"><style>.a{fill:#F14728;}</style><rect x="54.1" y="14.7" width="391.8" height="340.4" fill="#FFF"/><path d="M441.8 14.7H340.4L180.9 127.3h148.7l115.8 115.3L333.6 355.1h108.2c25.6 0 44.2-25.3 44.2-43.3V58.2C486 40 467.3 14.7 441.8 14.7L441.8 14.7z" class="a"/><path d="M58.7 355.1h101.1l159.6-112.2H170.9L54.7 127.3 167.1 14.7H58.7c-25.8 0-44 25.3-44 43.8v253.6C14.7 329.8 32.9 355.1 58.7 355.1L58.7 355.1z" fill="#1F4FA3"/><path d="M206.4 138H192.2l87.1 87.1c4 3.3 7.1 7.3 14 6.9h14.9l-87.6-86.9C216.7 140.7 213.8 138 206.4 138L206.4 138z" class="a"/></svg>
